# xmcd
#
# Track frame offsets:
#	150
#	16895
#	35699
#	53610
#	72377
#	90351
#	107070
#	122539
#	137554
#	156266
#	171933
#	189554
#	214966
#
# Disc length: 3104 seconds
#
# Revision: 1
# Processed by: cddbd v1.5.2PL0 Copyright (c) Steve Scherf et al.
# Submitted via: EasyCDDAExtractor 16.0.6.1
#
DISCID=af0c1e0d
DTITLE=Sarah Pierce - Bring it on 
DYEAR=2011
DGENRE=Country
TTITLE0=Bring it on 
TTITLE1=Butterfly tatoo
TTITLE2=Cowgirls ride
TTITLE3=It's not enough
TTITLE4=Our loves a little crazy
TTITLE5=Wild and Gnarly ride
TTITLE6=Twuenty dollar silver plated ting
TTITLE7=Baby Come Back
TTITLE8=Love being in love
TTITLE9=I like a man
TTITLE10=I ride
TTITLE11=Pearl Handled
TTITLE12=May peace find you tonight
EXTD=
EXTT0=
EXTT1=
EXTT2=
EXTT3=
EXTT4=
EXTT5=
EXTT6=
EXTT7=
EXTT8=
EXTT9=
EXTT10=
EXTT11=
EXTT12=
PLAYORDER=
